<svg width="1093" height="196" viewBox="0 0 1093 196" fill="none" xmlns="http://www.w3.org/2000/svg">
<path d="M77.8477 103C80.3329 103 82.3477 100.985 82.3477 98.5C82.3477 96.0147 80.3329 94 77.8477 94C75.3624 94 73.3477 96.0147 73.3477 98.5C73.3477 100.985 75.3624 103 77.8477 103Z" fill="#B19780"/>
<path d="M50.9799 101.629C52.5544 101.633 54.1107 101.292 55.5394 100.63C56.968 99.9677 58.2342 99.0009 59.2491 97.797C60.264 96.5932 61.0029 95.1817 61.4137 93.6616C61.8246 92.1416 61.8975 90.5501 61.6273 88.9989C61.3572 87.4477 60.7505 85.9745 59.8499 84.6829C58.9493 83.3913 57.7768 82.3127 56.4147 81.5229C55.0526 80.7331 53.534 80.2512 51.9657 80.1113C50.3974 79.9713 48.8175 80.1766 47.337 80.7128C47.1106 77.3064 45.7046 74.0853 43.3607 71.6032C41.0168 69.1211 37.8815 67.5331 34.4937 67.1121C31.106 66.6912 27.6774 67.4636 24.7973 69.2966C21.9173 71.1296 19.7658 73.9086 18.7126 77.156C16.974 76.4192 15.0933 76.078 13.2067 76.1572C11.32 76.2364 9.47458 76.7339 7.80382 77.6139C6.13306 78.4938 4.67878 79.7342 3.54619 81.2452C2.4136 82.7561 1.63102 84.5 1.25507 86.3506C0.879118 88.2011 0.919195 90.1121 1.3724 91.9453C1.82561 93.7784 2.68061 95.4879 3.87556 96.9501C5.0705 98.4123 6.57551 99.5905 8.28169 100.4C9.98788 101.209 11.8526 101.629 13.7409 101.629H50.9799Z" stroke="#6B6257" stroke-miterlimit="10"/>
<path d="M27.8369 128.154V126.738H30.8892V116.917H28.4654V115.809C29.0081 115.716 29.5425 115.579 30.0634 115.401C30.4904 115.254 30.9004 115.061 31.2864 114.826H32.6048V126.743H35.3657V128.154H27.8369Z" fill="#6B6257"/>
<path d="M79.3477 98H1023.35" stroke="#B19780" stroke-miterlimit="10"/>
<path d="M1024.85 103C1027.33 103 1029.35 100.985 1029.35 98.5C1029.35 96.0147 1027.33 94 1024.85 94C1022.36 94 1020.35 96.0147 1020.35 98.5C1020.35 100.985 1022.36 103 1024.85 103Z" fill="#B19780"/>
<path d="M1084.98 68L1091.51 77.1467L1069.3 101.973L1047.09 77.1467L1053.62 68H1084.98Z" stroke="#6B6257" stroke-miterlimit="10"/>
<path d="M1069.3 101.973L1053.62 68" stroke="#6B6257" stroke-miterlimit="10"/>
<path d="M1047.09 77.1465H1091.51" stroke="#6B6257" stroke-miterlimit="10"/>
<path d="M1084.98 68L1069.3 101.973" stroke="#6B6257" stroke-miterlimit="10"/>
<path d="M1069.3 68L1057.84 77.1467" stroke="#6B6257" stroke-miterlimit="10"/>
<path d="M1069.3 68L1080.76 77.1467" stroke="#6B6257" stroke-miterlimit="10"/>
<path d="M1060.56 127.846V126.429H1063.61V116.608H1061.19V115.5C1061.73 115.407 1062.27 115.271 1062.79 115.093C1063.21 114.945 1063.62 114.752 1064.01 114.518H1065.33V126.434H1068.09V127.846H1060.56Z" fill="#6B6257"/>
<path d="M1074.5 128.106C1073.86 128.12 1073.23 127.96 1072.68 127.643C1072.12 127.327 1071.66 126.865 1071.35 126.308C1070.5 124.723 1070.11 122.937 1070.22 121.144C1070.11 119.365 1070.5 117.59 1071.35 116.022C1071.68 115.485 1072.14 115.042 1072.69 114.734C1073.24 114.427 1073.86 114.266 1074.49 114.266C1075.12 114.266 1075.74 114.427 1076.3 114.734C1076.85 115.042 1077.31 115.485 1077.64 116.022C1078.49 117.59 1078.88 119.365 1078.77 121.144C1078.88 122.937 1078.48 124.723 1077.64 126.308C1077.33 126.863 1076.87 127.324 1076.32 127.641C1075.77 127.957 1075.14 128.118 1074.5 128.106ZM1074.5 126.726C1074.88 126.731 1075.25 126.617 1075.56 126.402C1075.91 126.141 1076.19 125.796 1076.38 125.399C1076.64 124.849 1076.82 124.265 1076.91 123.663C1077.04 122.831 1077.11 121.988 1077.1 121.144C1077.11 120.304 1077.04 119.464 1076.91 118.635C1076.82 118.046 1076.64 117.473 1076.38 116.937C1076.19 116.549 1075.91 116.215 1075.56 115.964C1075.25 115.756 1074.88 115.646 1074.5 115.651C1074.13 115.648 1073.75 115.757 1073.44 115.964C1073.08 116.212 1072.8 116.547 1072.61 116.937C1072.35 117.473 1072.17 118.046 1072.08 118.635C1071.94 119.464 1071.88 120.304 1071.89 121.144C1071.8 122.599 1072.04 124.056 1072.61 125.399C1072.77 125.777 1073.03 126.102 1073.36 126.337C1073.7 126.571 1074.1 126.704 1074.5 126.721V126.726Z" fill="#6B6257"/>
<path d="M344.997 196C399.12 196 442.995 152.124 442.995 98C442.995 43.8761 399.12 0 344.997 0C290.875 0 247 43.8761 247 98C247 152.124 290.875 196 344.997 196Z" fill="#FAFAFB"/>
<path d="M257.229 54.8805C265.301 38.4163 277.829 24.5461 293.389 14.8452C308.949 5.14443 326.918 0.00195313 345.254 0.00195312C363.59 0.00195313 381.559 5.14443 397.119 14.8452C412.679 24.5461 425.207 38.4163 433.279 54.8805" fill="#D5AA63"/>
<path d="M289.3 44.7236V34.4375H290.868L292.845 39.9255C292.968 40.2809 293.091 40.6389 293.213 40.9996C293.333 41.3602 293.455 41.7182 293.58 42.0737H293.642C293.768 41.7182 293.886 41.3602 293.996 40.9996C294.106 40.6389 294.223 40.2809 294.347 39.9255L296.292 34.4375H297.875V44.7236H296.654V39.0683C296.654 38.6084 296.673 38.1014 296.716 37.5474C296.759 36.9933 296.793 36.4864 296.826 36.0264H296.763L295.948 38.3627L294.002 43.6939H293.14L291.197 38.3627L290.382 36.0264H290.318C290.349 36.4864 290.383 36.9933 290.42 37.5474C290.456 38.1014 290.474 38.6084 290.474 39.0683V44.7288L289.3 44.7236Z" fill="white"/>
<path d="M305.271 44.9134C304.657 44.9207 304.05 44.7922 303.491 44.5371C302.954 44.2873 302.48 43.9202 302.104 43.463C301.697 42.9597 301.391 42.383 301.202 41.7643C300.979 41.0409 300.871 40.287 300.881 39.5299C300.869 38.7771 300.978 38.0273 301.202 37.3086C301.392 36.7013 301.698 36.1368 302.104 35.6465C302.481 35.1976 302.956 34.8402 303.491 34.6012C304.052 34.356 304.659 34.2331 305.271 34.2406C305.884 34.2333 306.492 34.359 307.052 34.609C307.587 34.852 308.063 35.2087 308.446 35.6544C308.858 36.1421 309.169 36.7071 309.361 37.3164C309.584 38.0291 309.692 38.7727 309.682 39.5195C309.692 40.2765 309.584 41.0304 309.361 41.7539C309.17 42.3745 308.859 42.9517 308.446 43.4526C308.066 43.9084 307.59 44.2751 307.052 44.5266C306.494 44.7853 305.886 44.9174 305.271 44.9134ZM305.271 43.7688C305.705 43.7751 306.133 43.6727 306.517 43.4709C306.898 43.2638 307.225 42.9713 307.474 42.6163C307.756 42.2114 307.966 41.7604 308.093 41.2835C308.246 40.7136 308.32 40.1253 308.313 39.5352C308.32 38.9528 308.246 38.3723 308.093 37.8104C307.969 37.3405 307.759 36.8976 307.474 36.5037C307.222 36.1604 306.894 35.879 306.517 35.6805C306.13 35.4897 305.703 35.3905 305.271 35.3905C304.839 35.3905 304.412 35.4897 304.024 35.6805C303.647 35.879 303.32 36.1604 303.068 36.5037C302.784 36.8979 302.574 37.3407 302.449 37.8104C302.296 38.3723 302.222 38.9528 302.229 39.5352C302.222 40.1253 302.295 40.7136 302.449 41.2835C302.577 41.7602 302.786 42.2111 303.068 42.6163C303.316 42.9713 303.644 43.2638 304.024 43.4709C304.408 43.6745 304.837 43.7787 305.271 43.774V43.7688Z" fill="white"/>
<path d="M315.53 44.914C314.857 44.9198 314.19 44.7878 313.57 44.5263C312.95 44.2647 312.389 43.8791 311.924 43.393L312.708 42.4783C313.077 42.8675 313.516 43.1839 314.001 43.4113C314.483 43.6432 315.011 43.7638 315.546 43.7641C316.111 43.7991 316.672 43.6355 317.129 43.3015C317.312 43.1569 317.457 42.9717 317.555 42.7607C317.653 42.5498 317.701 42.3188 317.694 42.0863C317.701 41.8572 317.657 41.6293 317.563 41.4199C317.477 41.24 317.354 41.0798 317.203 40.9495C317.038 40.81 316.856 40.6915 316.662 40.5967C316.453 40.4922 316.228 40.3824 315.987 40.2675L314.514 39.6246C314.261 39.5137 314.015 39.3881 313.777 39.2483C313.528 39.1035 313.301 38.924 313.102 38.7151C312.898 38.4975 312.734 38.2454 312.618 37.9703C312.484 37.6388 312.42 37.2833 312.429 36.926C312.438 36.5686 312.521 36.217 312.671 35.8927C312.833 35.5588 313.062 35.2624 313.345 35.0225C313.646 34.7694 313.992 34.5752 314.365 34.4502C314.781 34.3103 315.219 34.2414 315.658 34.2463C316.247 34.2404 316.829 34.3607 317.367 34.5991C317.865 34.8168 318.318 35.1272 318.7 35.5138L317.994 36.3605C317.69 36.0639 317.336 35.8225 316.949 35.6471C316.542 35.4684 316.1 35.3792 315.656 35.3858C315.161 35.3616 314.673 35.5022 314.268 35.7856C314.097 35.9133 313.96 36.0807 313.869 36.2734C313.778 36.4661 313.736 36.6781 313.745 36.891C313.738 37.1121 313.789 37.3312 313.894 37.5261C313.997 37.7022 314.132 37.8566 314.294 37.9808C314.465 38.1138 314.649 38.2294 314.843 38.3258C315.041 38.4251 315.245 38.5165 315.454 38.6002L316.913 39.2274C317.2 39.3501 317.478 39.4942 317.744 39.6586C317.995 39.8123 318.222 40.0025 318.418 40.223C318.611 40.4451 318.762 40.7001 318.865 40.9757C318.98 41.2947 319.036 41.6322 319.029 41.9714C319.032 42.3651 318.95 42.7549 318.787 43.1136C318.625 43.4723 318.386 43.7915 318.088 44.049C317.766 44.3265 317.394 44.5395 316.991 44.6762C316.521 44.8381 316.027 44.9186 315.53 44.914Z" fill="white"/>
<path d="M323.652 44.7242V35.541H320.548V34.4434H328.075V35.541H324.971V44.7294L323.652 44.7242Z" fill="white"/>
<path d="M334.629 44.7239V34.4378H337.561C338.09 34.4332 338.619 34.4857 339.137 34.5946C339.572 34.6816 339.985 34.8549 340.352 35.1042C340.689 35.343 340.959 35.6642 341.136 36.0371C341.336 36.4856 341.432 36.9733 341.417 37.464C341.429 37.9487 341.335 38.4302 341.142 38.8752C340.968 39.2623 340.702 39.6013 340.368 39.8631C340.01 40.1353 339.602 40.335 339.168 40.4511C338.664 40.5867 338.144 40.6526 337.622 40.6471H335.924V44.7239H334.629ZM335.936 39.5808H337.472C338.176 39.6346 338.879 39.4556 339.471 39.0712C339.699 38.8736 339.877 38.6251 339.99 38.3458C340.104 38.0665 340.15 37.7644 340.125 37.464C340.157 37.1693 340.112 36.8711 339.992 36.5998C339.872 36.3285 339.682 36.0938 339.443 35.9195C338.818 35.5923 338.116 35.4431 337.412 35.4883H335.938L335.936 39.5808Z" fill="white"/>
<path d="M348.082 44.9134C347.468 44.9207 346.86 44.7922 346.302 44.5371C345.765 44.2873 345.291 43.9202 344.914 43.463C344.507 42.96 344.201 42.3832 344.013 41.7643C343.79 41.0409 343.681 40.287 343.691 39.5299C343.68 38.7771 343.788 38.0273 344.013 37.3086C344.202 36.7011 344.508 36.1364 344.914 35.6465C345.292 35.1976 345.766 34.8402 346.302 34.6012C346.863 34.356 347.469 34.2331 348.082 34.2406C348.694 34.2332 349.302 34.3589 349.861 34.609C350.397 34.852 350.873 35.2088 351.257 35.6544C351.669 36.1421 351.98 36.7071 352.171 37.3164C352.394 38.0291 352.503 38.7727 352.493 39.5195C352.503 40.2765 352.394 41.0304 352.171 41.7539C351.981 42.3745 351.67 42.9517 351.257 43.4526C350.876 43.9086 350.399 44.2753 349.861 44.5266C349.304 44.7854 348.696 44.9175 348.082 44.9134ZM348.082 43.7688C348.515 43.7751 348.944 43.6727 349.328 43.4709C349.708 43.2634 350.036 42.971 350.285 42.6163C350.567 42.2114 350.777 41.7604 350.904 41.2835C351.057 40.7136 351.131 40.1253 351.123 39.5352C351.131 38.9528 351.057 38.3723 350.904 37.8104C350.779 37.3405 350.569 36.8976 350.285 36.5037C350.032 36.1607 349.705 35.8793 349.328 35.6805C348.94 35.4897 348.514 35.3905 348.082 35.3905C347.649 35.3905 347.223 35.4897 346.835 35.6805C346.458 35.879 346.131 36.1604 345.879 36.5037C345.594 36.8976 345.384 37.3405 345.259 37.8104C345.106 38.3723 345.032 38.9528 345.04 39.5352C345.032 40.1253 345.106 40.7136 345.259 41.2835C345.387 41.7604 345.596 42.2114 345.879 42.6163C346.127 42.9713 346.454 43.2638 346.835 43.4709C347.219 43.6745 347.647 43.7787 348.082 43.774V43.7688Z" fill="white"/>
<path d="M355.482 44.7238V34.4377H358.414C358.941 34.4335 359.467 34.4861 359.982 34.5945C360.418 34.6816 360.831 34.8548 361.199 35.1041C361.536 35.3425 361.806 35.6639 361.983 36.0371C362.183 36.4853 362.279 36.9732 362.264 37.464C362.276 37.9487 362.183 38.4304 361.989 38.8752C361.815 39.2625 361.549 39.6016 361.215 39.863C360.857 40.1354 360.45 40.3352 360.015 40.451C359.512 40.5866 358.992 40.6525 358.471 40.647H356.772V44.7238H355.482ZM356.789 39.5808H358.32C359.025 39.6341 359.727 39.4551 360.32 39.0712C360.547 38.8735 360.725 38.6249 360.838 38.3457C360.952 38.0664 360.998 37.7644 360.973 37.464C361.006 37.1694 360.96 36.8714 360.84 36.6001C360.721 36.3289 360.532 36.0941 360.292 35.9195C359.668 35.5925 358.965 35.4433 358.262 35.4883H356.788L356.789 39.5808Z" fill="white"/>
<path d="M368.794 44.9131C368.296 44.917 367.801 44.8402 367.328 44.6857C366.879 44.5377 366.474 44.2789 366.152 43.9331C365.794 43.5379 365.527 43.0698 365.368 42.5611C365.165 41.8834 365.07 41.1777 365.087 40.4704V34.4336H366.394V40.507C366.382 41.0308 366.445 41.5535 366.582 42.0593C366.68 42.4254 366.854 42.7671 367.091 43.0628C367.294 43.3055 367.556 43.4918 367.852 43.6038C368.153 43.715 368.472 43.7708 368.793 43.7684C369.119 43.7716 369.443 43.7158 369.749 43.6038C370.046 43.4907 370.311 43.3047 370.517 43.0628C370.759 42.7693 370.936 42.427 371.033 42.0593C371.172 41.5538 371.236 41.0309 371.224 40.507V34.4388H372.479V40.4756C372.496 41.1831 372.401 41.8888 372.196 42.5663C372.04 43.0746 371.776 43.5428 371.42 43.9383C371.1 44.2825 370.698 44.5412 370.252 44.6909C369.781 44.844 369.289 44.9191 368.794 44.9131Z" fill="white"/>
<path d="M376.038 44.7236V34.4375H377.345V43.6103H381.84V44.7236H376.038Z" fill="white"/>
<path d="M383.124 44.7236L386.605 34.4375H388.079L391.56 44.7236H390.164L389.193 41.5876H385.446L384.458 44.7236H383.124ZM386.26 38.9742L385.774 40.5422H388.863L388.377 38.9742C388.187 38.3993 388.011 37.827 387.844 37.2573C387.676 36.6876 387.509 36.1048 387.342 35.509H387.278C387.122 36.1048 386.959 36.685 386.793 37.2573C386.627 37.8296 386.448 38.3941 386.261 38.969L386.26 38.9742Z" fill="white"/>
<path d="M393.802 44.7238V34.4377H397.016C397.504 34.434 397.991 34.4839 398.468 34.5867C398.879 34.6721 399.268 34.8401 399.612 35.0806C399.932 35.3114 400.188 35.6187 400.357 35.9743C400.545 36.3983 400.634 36.8594 400.618 37.3228C400.654 38.0208 400.431 38.7074 399.993 39.2515C399.544 39.7503 398.95 40.0958 398.294 40.2393L400.907 44.7238H399.433L396.951 40.3804H395.085V44.7238H393.802ZM395.108 39.3142H396.834C397.489 39.3568 398.139 39.1832 398.685 38.8203C398.904 38.6405 399.077 38.4106 399.189 38.15C399.301 37.8894 399.348 37.6057 399.328 37.3228C399.356 37.0494 399.311 36.7733 399.198 36.5227C399.086 36.272 398.908 36.0558 398.685 35.8959C398.118 35.5912 397.477 35.4501 396.834 35.4883H395.108V39.3142Z" fill="white"/>
<path d="M275.571 100V85.568H277.397V98.438H283.711V100H275.571ZM289.003 100.264C287.859 100.264 287.023 99.912 286.495 99.208C285.982 98.504 285.725 97.4627 285.725 96.084V89.308H287.551V95.842C287.551 96.854 287.705 97.5873 288.013 98.042C288.336 98.482 288.849 98.702 289.553 98.702C290.111 98.702 290.602 98.5627 291.027 98.284C291.453 97.9907 291.922 97.5287 292.435 96.898V89.308H294.239V100H292.743L292.589 98.328H292.523C292.025 98.9147 291.497 99.384 290.939 99.736C290.397 100.088 289.751 100.264 289.003 100.264ZM296.35 100L299.848 94.412L296.614 89.308H298.572L300.002 91.662C300.163 91.9553 300.332 92.256 300.508 92.564C300.684 92.8573 300.867 93.1507 301.058 93.444H301.146C301.307 93.1507 301.469 92.8573 301.63 92.564C301.791 92.256 301.953 91.9553 302.114 91.662L303.412 89.308H305.304L302.07 94.61L305.546 100H303.588L302.026 97.514C301.835 97.1913 301.645 96.8687 301.454 96.546C301.263 96.2233 301.065 95.908 300.86 95.6H300.772C300.581 95.908 300.398 96.2233 300.222 96.546C300.046 96.854 299.87 97.1767 299.694 97.514L298.242 100H296.35ZM310.788 100.264C309.644 100.264 308.808 99.912 308.28 99.208C307.767 98.504 307.51 97.4627 307.51 96.084V89.308H309.336V95.842C309.336 96.854 309.49 97.5873 309.798 98.042C310.121 98.482 310.634 98.702 311.338 98.702C311.896 98.702 312.387 98.5627 312.812 98.284C313.238 97.9907 313.707 97.5287 314.22 96.898V89.308H316.024V100H314.528L314.374 98.328H314.308C313.81 98.9147 313.282 99.384 312.724 99.736C312.182 100.088 311.536 100.264 310.788 100.264ZM319.631 100V89.308H321.127L321.281 91.244H321.347C321.714 90.5693 322.154 90.034 322.667 89.638C323.195 89.242 323.767 89.044 324.383 89.044C324.808 89.044 325.19 89.1173 325.527 89.264L325.175 90.848C324.999 90.7893 324.838 90.7453 324.691 90.716C324.544 90.6867 324.361 90.672 324.141 90.672C323.686 90.672 323.21 90.8553 322.711 91.222C322.227 91.5887 321.802 92.2267 321.435 93.136V100H319.631ZM327.993 104.598C327.743 104.598 327.516 104.576 327.311 104.532C327.105 104.503 326.915 104.451 326.739 104.378L327.091 102.948C327.208 102.977 327.34 103.007 327.487 103.036C327.633 103.08 327.773 103.102 327.905 103.102C328.521 103.102 329.019 102.882 329.401 102.442C329.797 102.017 330.105 101.474 330.325 100.814L330.567 100.022L326.277 89.308H328.147L330.325 95.226C330.486 95.6953 330.655 96.194 330.831 96.722C331.021 97.2353 331.197 97.7413 331.359 98.24H331.447C331.608 97.756 331.762 97.25 331.909 96.722C332.055 96.194 332.202 95.6953 332.349 95.226L334.263 89.308H336.023L331.997 100.88C331.806 101.408 331.593 101.899 331.359 102.354C331.124 102.809 330.845 103.197 330.523 103.52C330.2 103.857 329.833 104.121 329.423 104.312C329.012 104.503 328.535 104.598 327.993 104.598ZM342.667 100V85.568H344.867L347.639 93.268C347.815 93.7667 347.983 94.2727 348.145 94.786C348.321 95.2847 348.497 95.7833 348.673 96.282H348.761C348.937 95.7833 349.098 95.2847 349.245 94.786C349.406 94.2727 349.575 93.7667 349.751 93.268L352.479 85.568H354.701V100H352.985V92.058C352.985 91.4127 353.014 90.7013 353.073 89.924C353.131 89.1467 353.183 88.4353 353.227 87.79H353.139L351.995 91.068L349.267 98.548H348.057L345.329 91.068L344.185 87.79H344.097C344.141 88.4353 344.185 89.1467 344.229 89.924C344.287 90.7013 344.317 91.4127 344.317 92.058V100H342.667ZM362.809 100.264C362.09 100.264 361.416 100.139 360.785 99.89C360.169 99.626 359.626 99.2593 359.157 98.79C358.702 98.306 358.343 97.7193 358.079 97.03C357.815 96.3407 357.683 95.556 357.683 94.676C357.683 93.796 357.815 93.0113 358.079 92.322C358.358 91.618 358.717 91.024 359.157 90.54C359.612 90.056 360.125 89.6893 360.697 89.44C361.269 89.176 361.863 89.044 362.479 89.044C363.154 89.044 363.755 89.1613 364.283 89.396C364.826 89.6307 365.273 89.968 365.625 90.408C365.992 90.848 366.27 91.376 366.461 91.992C366.652 92.608 366.747 93.2973 366.747 94.06C366.747 94.2507 366.74 94.4413 366.725 94.632C366.725 94.808 366.71 94.962 366.681 95.094H359.465C359.538 96.238 359.89 97.1473 360.521 97.822C361.166 98.482 362.002 98.812 363.029 98.812C363.542 98.812 364.012 98.7387 364.437 98.592C364.877 98.4307 365.295 98.2253 365.691 97.976L366.329 99.164C365.86 99.4573 365.339 99.714 364.767 99.934C364.195 100.154 363.542 100.264 362.809 100.264ZM359.443 93.796H365.163C365.163 92.7107 364.928 91.8893 364.459 91.332C364.004 90.76 363.359 90.474 362.523 90.474C362.142 90.474 361.775 90.5473 361.423 90.694C361.086 90.8407 360.778 91.0607 360.499 91.354C360.22 91.6327 359.986 91.9773 359.795 92.388C359.619 92.7987 359.502 93.268 359.443 93.796ZM373.041 100.264C371.692 100.264 370.614 99.78 369.807 98.812C369.015 97.844 368.619 96.4653 368.619 94.676C368.619 93.8107 368.744 93.0333 368.993 92.344C369.257 91.64 369.602 91.046 370.027 90.562C370.452 90.078 370.944 89.704 371.501 89.44C372.058 89.176 372.645 89.044 373.261 89.044C373.877 89.044 374.412 89.154 374.867 89.374C375.322 89.594 375.784 89.8947 376.253 90.276L376.165 88.45V84.336H377.991V100H376.495L376.341 98.746H376.275C375.85 99.1567 375.358 99.516 374.801 99.824C374.258 100.117 373.672 100.264 373.041 100.264ZM373.437 98.746C373.936 98.746 374.405 98.6287 374.845 98.394C375.285 98.1447 375.725 97.7707 376.165 97.272V91.684C375.71 91.2733 375.27 90.9873 374.845 90.826C374.434 90.65 374.009 90.562 373.569 90.562C373.144 90.562 372.74 90.6647 372.359 90.87C371.992 91.0607 371.67 91.3393 371.391 91.706C371.112 92.058 370.892 92.4833 370.731 92.982C370.57 93.4807 370.489 94.038 370.489 94.654C370.489 95.9447 370.746 96.9493 371.259 97.668C371.772 98.3867 372.498 98.746 373.437 98.746ZM381.592 100V89.308H383.396V100H381.592ZM382.516 87.108C382.164 87.108 381.863 86.998 381.614 86.778C381.379 86.558 381.262 86.2793 381.262 85.942C381.262 85.59 381.379 85.3113 381.614 85.106C381.863 84.886 382.164 84.776 382.516 84.776C382.868 84.776 383.161 84.886 383.396 85.106C383.645 85.3113 383.77 85.59 383.77 85.942C383.77 86.2793 383.645 86.558 383.396 86.778C383.161 86.998 382.868 87.108 382.516 87.108ZM390.13 100.264C388.986 100.264 388.15 99.912 387.622 99.208C387.109 98.504 386.852 97.4627 386.852 96.084V89.308H388.678V95.842C388.678 96.854 388.832 97.5873 389.14 98.042C389.463 98.482 389.976 98.702 390.68 98.702C391.237 98.702 391.729 98.5627 392.154 98.284C392.579 97.9907 393.049 97.5287 393.562 96.898V89.308H395.366V100H393.87L393.716 98.328H393.65C393.151 98.9147 392.623 99.384 392.066 99.736C391.523 100.088 390.878 100.264 390.13 100.264ZM398.973 100V89.308H400.469L400.623 90.848H400.689C401.158 90.3347 401.664 89.9093 402.207 89.572C402.764 89.22 403.366 89.044 404.011 89.044C404.832 89.044 405.47 89.2273 405.925 89.594C406.394 89.946 406.739 90.4447 406.959 91.09C407.516 90.474 408.074 89.9827 408.631 89.616C409.203 89.2347 409.819 89.044 410.479 89.044C411.579 89.044 412.393 89.396 412.921 90.1C413.464 90.804 413.735 91.8453 413.735 93.224V100H411.931V93.466C411.931 92.454 411.77 91.728 411.447 91.288C411.124 90.8333 410.626 90.606 409.951 90.606C409.144 90.606 408.25 91.156 407.267 92.256V100H405.463V93.466C405.463 92.454 405.302 91.728 404.979 91.288C404.656 90.8333 404.15 90.606 403.461 90.606C402.654 90.606 401.76 91.156 400.777 92.256V100H398.973ZM324.626 143.408C323.56 143.408 322.574 143.193 321.668 142.762C320.761 142.331 319.968 141.685 319.288 140.824C318.63 139.94 318.109 138.852 317.724 137.56C317.338 136.245 317.146 134.715 317.146 132.97C317.146 130.794 317.372 128.947 317.826 127.428C318.279 125.887 318.891 124.64 319.662 123.688C320.432 122.713 321.305 122.011 322.28 121.58C323.277 121.127 324.32 120.9 325.408 120.9C326.586 120.9 327.595 121.127 328.434 121.58C329.295 122.011 330.032 122.555 330.644 123.212L329.08 124.946C328.626 124.425 328.082 124.017 327.448 123.722C326.836 123.405 326.19 123.246 325.51 123.246C324.762 123.246 324.048 123.405 323.368 123.722C322.688 124.039 322.087 124.561 321.566 125.286C321.044 126.011 320.625 126.963 320.308 128.142C319.99 129.298 319.82 130.737 319.798 132.46C320.478 131.621 321.271 130.964 322.178 130.488C323.084 129.989 323.98 129.74 324.864 129.74C326.745 129.74 328.241 130.295 329.352 131.406C330.485 132.517 331.052 134.194 331.052 136.438C331.052 137.481 330.882 138.433 330.542 139.294C330.202 140.133 329.737 140.858 329.148 141.47C328.558 142.082 327.878 142.558 327.108 142.898C326.337 143.238 325.51 143.408 324.626 143.408ZM324.626 141.198C325.17 141.198 325.668 141.085 326.122 140.858C326.575 140.631 326.972 140.314 327.312 139.906C327.652 139.475 327.912 138.977 328.094 138.41C328.298 137.821 328.4 137.163 328.4 136.438C328.4 135.01 328.071 133.888 327.414 133.072C326.756 132.256 325.748 131.848 324.388 131.848C323.685 131.848 322.926 132.075 322.11 132.528C321.294 132.959 320.546 133.684 319.866 134.704C320.047 136.835 320.534 138.455 321.328 139.566C322.144 140.654 323.243 141.198 324.626 141.198ZM340.615 135.554V133.412H348.435V135.554H340.615ZM362.604 143C362.695 140.96 362.876 139.09 363.148 137.39C363.42 135.69 363.794 134.081 364.27 132.562C364.769 131.021 365.392 129.536 366.14 128.108C366.911 126.68 367.829 125.218 368.894 123.722H358.082V121.308H372.056V123.042C370.764 124.674 369.71 126.238 368.894 127.734C368.101 129.23 367.466 130.76 366.99 132.324C366.514 133.865 366.163 135.509 365.936 137.254C365.732 138.977 365.585 140.892 365.494 143H362.604Z" fill="#4F4F4F"/>
<path d="M749.945 165.893C787.47 165.893 817.89 135.473 817.89 97.9467C817.89 60.4208 787.47 30 749.945 30C712.42 30 682 60.4208 682 97.9467C682 135.473 712.42 165.893 749.945 165.893Z" fill="#FAFAFB"/>
<path d="M730.904 82V67.568H739.22V69.108H732.73V73.992H738.23V75.532H732.73V82H730.904ZM741.599 82V71.308H743.403V82H741.599ZM742.523 69.108C742.171 69.108 741.87 68.998 741.621 68.778C741.386 68.558 741.269 68.2793 741.269 67.942C741.269 67.59 741.386 67.3113 741.621 67.106C741.87 66.886 742.171 66.776 742.523 66.776C742.875 66.776 743.168 66.886 743.403 67.106C743.652 67.3113 743.777 67.59 743.777 67.942C743.777 68.2793 743.652 68.558 743.403 68.778C743.168 68.998 742.875 69.108 742.523 69.108ZM747.013 82V71.308H748.509L748.663 73.244H748.729C749.096 72.5693 749.536 72.034 750.049 71.638C750.577 71.242 751.149 71.044 751.765 71.044C752.19 71.044 752.572 71.1173 752.909 71.264L752.557 72.848C752.381 72.7893 752.22 72.7453 752.073 72.716C751.926 72.6867 751.743 72.672 751.523 72.672C751.068 72.672 750.592 72.8553 750.093 73.222C749.609 73.5887 749.184 74.2267 748.817 75.136V82H747.013ZM754.64 82V71.308H756.136L756.29 72.848H756.356C756.825 72.3347 757.331 71.9093 757.874 71.572C758.431 71.22 759.033 71.044 759.678 71.044C760.499 71.044 761.137 71.2273 761.592 71.594C762.061 71.946 762.406 72.4447 762.626 73.09C763.183 72.474 763.741 71.9827 764.298 71.616C764.87 71.2347 765.486 71.044 766.146 71.044C767.246 71.044 768.06 71.396 768.588 72.1C769.131 72.804 769.402 73.8453 769.402 75.224V82H767.598V75.466C767.598 74.454 767.437 73.728 767.114 73.288C766.791 72.8333 766.293 72.606 765.618 72.606C764.811 72.606 763.917 73.156 762.934 74.256V82H761.13V75.466C761.13 74.454 760.969 73.728 760.646 73.288C760.323 72.8333 759.817 72.606 759.128 72.606C758.321 72.606 757.427 73.156 756.444 74.256V82H754.64ZM729.514 125.408C728.494 125.408 727.542 125.261 726.658 124.966C725.796 124.671 725.048 124.263 724.414 123.742C723.802 123.198 723.314 122.563 722.952 121.838C722.589 121.113 722.408 120.319 722.408 119.458C722.408 118.755 722.521 118.109 722.748 117.52C722.997 116.908 723.303 116.364 723.666 115.888C724.051 115.389 724.482 114.959 724.958 114.596C725.456 114.211 725.966 113.882 726.488 113.61V113.474C725.694 112.907 724.992 112.227 724.38 111.434C723.768 110.618 723.462 109.632 723.462 108.476C723.462 107.637 723.62 106.878 723.938 106.198C724.255 105.518 724.686 104.94 725.23 104.464C725.774 103.965 726.42 103.58 727.168 103.308C727.916 103.036 728.732 102.9 729.616 102.9C730.568 102.9 731.418 103.047 732.166 103.342C732.914 103.614 733.548 104.011 734.07 104.532C734.614 105.031 735.022 105.643 735.294 106.368C735.588 107.071 735.736 107.841 735.736 108.68C735.736 109.247 735.634 109.791 735.43 110.312C735.248 110.833 735.01 111.321 734.716 111.774C734.444 112.227 734.126 112.635 733.764 112.998C733.424 113.361 733.084 113.667 732.744 113.916V114.052C733.22 114.324 733.684 114.641 734.138 115.004C734.591 115.344 734.988 115.741 735.328 116.194C735.69 116.625 735.974 117.123 736.178 117.69C736.404 118.257 736.518 118.903 736.518 119.628C736.518 120.444 736.348 121.203 736.008 121.906C735.668 122.609 735.192 123.221 734.58 123.742C733.968 124.263 733.231 124.671 732.37 124.966C731.508 125.261 730.556 125.408 729.514 125.408ZM731.044 113.168C731.769 112.511 732.324 111.819 732.71 111.094C733.118 110.369 733.322 109.609 733.322 108.816C733.322 107.728 732.993 106.821 732.336 106.096C731.678 105.348 730.749 104.974 729.548 104.974C728.528 104.974 727.689 105.291 727.032 105.926C726.374 106.561 726.046 107.411 726.046 108.476C726.046 109.133 726.182 109.7 726.454 110.176C726.726 110.629 727.088 111.037 727.542 111.4C728.018 111.763 728.55 112.091 729.14 112.386C729.752 112.658 730.386 112.919 731.044 113.168ZM729.582 123.334C730.851 123.334 731.871 122.983 732.642 122.28C733.435 121.577 733.832 120.659 733.832 119.526C733.832 118.823 733.673 118.223 733.356 117.724C733.038 117.225 732.608 116.795 732.064 116.432C731.52 116.047 730.885 115.707 730.16 115.412C729.457 115.095 728.72 114.777 727.95 114.46C727.088 115.049 726.363 115.741 725.774 116.534C725.207 117.305 724.924 118.189 724.924 119.186C724.924 119.798 725.037 120.353 725.264 120.852C725.513 121.351 725.842 121.793 726.25 122.178C726.68 122.541 727.179 122.824 727.746 123.028C728.312 123.232 728.924 123.334 729.582 123.334ZM746.115 117.554V115.412H753.935V117.554H746.115ZM770.076 114.46C770.801 114.46 771.561 114.233 772.354 113.78C773.17 113.327 773.929 112.59 774.632 111.57C774.451 109.439 773.952 107.83 773.136 106.742C772.32 105.654 771.221 105.11 769.838 105.11C769.317 105.11 768.818 105.223 768.342 105.45C767.889 105.677 767.492 106.005 767.152 106.436C766.812 106.844 766.54 107.343 766.336 107.932C766.155 108.521 766.064 109.167 766.064 109.87C766.064 111.298 766.393 112.42 767.05 113.236C767.707 114.052 768.716 114.46 770.076 114.46ZM769.056 125.408C767.9 125.408 766.88 125.193 765.996 124.762C765.135 124.331 764.409 123.787 763.82 123.13L765.384 121.362C765.837 121.883 766.37 122.303 766.982 122.62C767.617 122.937 768.274 123.096 768.954 123.096C769.725 123.096 770.45 122.937 771.13 122.62C771.81 122.303 772.411 121.781 772.932 121.056C773.453 120.308 773.873 119.345 774.19 118.166C774.507 116.987 774.677 115.525 774.7 113.78C774.02 114.641 773.227 115.321 772.32 115.82C771.413 116.319 770.507 116.568 769.6 116.568C767.719 116.568 766.223 116.013 765.112 114.902C764.001 113.791 763.446 112.114 763.446 109.87C763.446 108.827 763.616 107.887 763.956 107.048C764.296 106.187 764.749 105.45 765.316 104.838C765.905 104.226 766.585 103.75 767.356 103.41C768.149 103.07 768.977 102.9 769.838 102.9C770.903 102.9 771.889 103.115 772.796 103.546C773.725 103.977 774.519 104.634 775.176 105.518C775.856 106.379 776.377 107.467 776.74 108.782C777.125 110.074 777.318 111.593 777.318 113.338C777.318 115.514 777.091 117.373 776.638 118.914C776.185 120.433 775.573 121.679 774.802 122.654C774.031 123.606 773.147 124.309 772.15 124.762C771.175 125.193 770.144 125.408 769.056 125.408Z" fill="#4F4F4F"/>
</svg>
