<svg width="119" height="28" viewBox="0 0 119 28" fill="none" xmlns="http://www.w3.org/2000/svg">
<path d="M88.381 8.87659C88.0497 9.26485 87.7323 9.66692 87.4041 10.0548C87.4044 8.4282 87.4037 6.8014 87.4041 5.1748C86.3332 5.175 85.2622 5.175 84.1914 5.1748C84.1922 9.04474 84.1914 12.9147 84.1914 16.7842C84.1914 19.7694 84.1914 22.7548 84.1914 25.74C84.1914 26.3303 84.1914 27.1152 84.1914 27.7057H87.4041V15.7185C87.4041 15.2639 87.4219 14.784 87.5134 14.2927C87.8709 13.6746 88.0832 13.6163 88.5022 12.9962C89.712 11.3025 92.8297 8.8112 95.0351 8.52686C95.2584 8.49826 95.3717 8.47939 95.5456 8.47024C95.6543 8.47822 95.7629 8.486 95.8713 8.49865V5.17714C93.2531 5.23164 90.7355 6.397 88.92 8.27874C88.7341 8.47121 88.5555 8.67205 88.381 8.87659Z" fill="#C19677"/>
<path d="M68.6848 5.375C68.2128 5.375 67.7262 5.39679 67.2376 5.44C64.1824 5.70993 61.4942 7.16526 59.668 9.53821C57.6924 12.1054 56.9259 15.4298 57.5105 18.899C58.3896 24.1134 62.9402 27.8981 68.3307 27.8983C68.3309 27.8983 68.3311 27.8983 68.3313 27.8983C69.1859 27.8983 70.0441 27.798 70.8822 27.6009C73.5687 26.969 75.9874 25.4685 77.5179 23.4842L77.6315 23.2608V23.3367L77.6499 23.4493C77.693 23.7136 77.6986 26.2224 77.6817 27.757H80.1241L80.1252 24.7251C80.1266 22.1976 80.1279 19.5839 80.1236 17.2547C80.1089 10.038 75.619 5.375 68.6848 5.375ZM75.7621 21.5886C75.7022 21.6803 75.6413 21.7702 75.5781 21.8584C74.0534 23.9952 71.6318 25.1725 68.7588 25.1733C65.7639 25.1733 63.18 23.8397 61.6662 21.5151C60.7615 20.1259 60.2832 18.4353 60.2824 16.6253C60.2824 16.5936 60.2834 16.5627 60.2842 16.5317L60.2865 16.4113C60.2877 16.3276 60.2888 16.2443 60.2921 16.1618C60.3524 14.8059 60.6747 13.5506 61.2503 12.4277C62.653 9.69196 65.4455 8.05894 68.7204 8.05894H68.7319C71.7349 8.06283 74.3072 9.38778 75.7886 11.694C76.676 13.0756 77.1474 14.7745 77.1512 16.607C77.1551 18.4674 76.6747 20.1901 75.7621 21.5886Z" fill="#C19677"/>
<path d="M68.6852 5.27832C68.2106 5.27832 67.7208 5.30012 67.2297 5.34371C64.1472 5.61578 61.4346 7.08455 59.5917 9.47929C57.5992 12.0683 56.8261 15.4195 57.4152 18.9158C57.8467 21.4754 59.2045 23.8009 61.2385 25.4635C63.2363 27.0967 65.755 27.996 68.331 27.9962C68.3312 27.9962 68.3313 27.9962 68.3315 27.9962C69.1935 27.9962 70.0593 27.8952 70.9046 27.6961C73.5751 27.0679 75.9835 25.5876 77.5348 23.6199V23.6284L77.5646 23.5881C77.5964 24.1724 77.6005 26.4118 77.5844 27.8055L77.5838 27.8547H80.2212L80.2224 24.7255C80.2238 22.198 80.2251 19.5841 80.2208 17.255C80.2063 9.97926 75.6782 5.27832 68.6852 5.27832ZM80.1253 24.7253L80.1241 27.7572H77.6818C77.6986 26.2227 77.693 23.7141 77.6499 23.4496L77.6315 23.3369V23.261L77.5179 23.4844C75.9874 25.4687 73.5689 26.9692 70.8823 27.6011C70.0441 27.7985 69.186 27.8985 68.3314 27.8985C68.3312 27.8985 68.331 27.8985 68.3308 27.8985C62.9403 27.8983 58.3898 24.1136 57.5106 18.8993C56.9262 15.4302 57.6924 12.1058 59.6681 9.53845C61.4943 7.16569 64.1826 5.71017 67.2377 5.44023C67.7262 5.39703 68.2129 5.37524 68.6848 5.37524C75.6192 5.37524 80.109 10.0382 80.1233 17.2546C80.1278 19.5841 80.1264 22.1976 80.1253 24.7253Z" fill="#C19676"/>
<path d="M68.7327 8.05957H68.7212C65.4463 8.05957 62.6538 9.69279 61.2511 12.4283C60.6754 13.5512 60.3532 14.8065 60.2929 16.1624C60.2894 16.2449 60.2884 16.3284 60.2873 16.4119L60.285 16.5324C60.2842 16.5633 60.2832 16.5943 60.2832 16.626C60.284 18.4359 60.7625 20.1265 61.6669 21.5157C63.1806 23.8404 65.7645 25.1739 68.7596 25.1739C71.6324 25.1731 74.0542 23.9959 75.5789 21.859C75.6421 21.7708 75.7032 21.6809 75.7629 21.5893C76.6756 20.1906 77.1562 18.468 77.1523 16.6075C77.1482 14.775 76.6771 13.076 75.7897 11.6944C74.308 9.38841 71.7358 8.06327 68.7327 8.05957ZM75.6819 21.5359C75.6228 21.6262 75.5627 21.7152 75.5 21.8024C73.9939 23.9132 71.6002 25.0758 68.7558 25.0766C65.7979 25.0766 63.2436 23.7592 61.7482 21.4626C60.854 20.0894 60.3809 18.417 60.3801 16.6256C60.3801 16.5954 60.3809 16.5651 60.3819 16.5351L60.3842 16.4131C60.3854 16.3304 60.3865 16.2476 60.3902 16.1638C60.4496 14.8248 60.7681 13.583 61.3374 12.4727C62.723 9.77005 65.4834 8.15669 68.7212 8.15669V8.10843V8.10803L68.7214 8.10843L68.7327 8.15669C71.702 8.16058 74.2448 9.46917 75.7083 11.7471C76.5854 13.113 77.0515 14.7937 77.0554 16.6079C77.0589 18.4493 76.584 20.1532 75.6819 21.5359Z" fill="#C19676"/>
<path d="M107.497 8.10742V8.10843H107.498L107.497 8.10742Z" fill="#C19677"/>
<path d="M107.461 5.375C106.989 5.375 106.503 5.39679 106.014 5.44C102.959 5.70993 100.271 7.16526 98.4445 9.53821C96.4688 12.1054 95.7024 15.4298 96.2868 18.899C97.166 24.1134 101.717 27.8981 107.107 27.8983C107.107 27.8983 107.108 27.8983 107.108 27.8983C107.962 27.8983 108.821 27.798 109.659 27.6009C112.345 26.969 114.764 25.4685 116.294 23.4842L116.408 23.2608V23.3367L116.426 23.4493C116.469 23.7136 116.475 26.2224 116.458 27.757H118.9L118.902 24.7251C118.903 22.1976 118.904 19.5839 118.9 17.2547C118.886 10.038 114.396 5.375 107.461 5.375ZM114.539 21.5886C114.479 21.6803 114.418 21.7702 114.355 21.8584C112.83 23.9952 110.408 25.1725 107.535 25.1733C104.541 25.1733 101.957 23.8397 100.443 21.5151C99.5384 20.1259 99.0599 18.4353 99.0591 16.6253C99.0591 16.5936 99.0601 16.5627 99.061 16.5317L99.0633 16.4113C99.0645 16.3276 99.0657 16.2443 99.069 16.1618C99.1293 14.8059 99.4515 13.5506 100.027 12.4277C101.43 9.69196 104.222 8.05894 107.497 8.05894H107.508C110.512 8.06283 113.084 9.38778 114.565 11.694C115.453 13.0756 115.924 14.7745 115.928 16.607C115.932 18.4674 115.451 20.1901 114.539 21.5886Z" fill="#C19677"/>
<path d="M118.997 17.2548C118.983 9.97926 114.455 5.27832 107.462 5.27832C106.987 5.27832 106.497 5.30012 106.006 5.34371C102.924 5.61578 100.211 7.08455 98.3681 9.47929C96.3755 12.0685 95.6025 15.4195 96.1915 18.9158C96.6231 21.4754 97.9809 23.8009 100.015 25.4635C102.013 27.0967 104.532 27.996 107.107 27.9962C107.108 27.9962 107.108 27.9962 107.108 27.9962C107.97 27.9962 108.836 27.8952 109.681 27.6961C112.351 27.0679 114.76 25.5876 116.311 23.6199V23.6284L116.341 23.5881C116.373 24.1724 116.377 26.4118 116.361 27.8055L116.36 27.8547H118.998L118.999 24.7255C119 22.1976 119.001 19.5839 118.997 17.2548ZM118.902 24.7253L118.901 27.7572H116.458C116.475 26.2227 116.47 23.7141 116.427 23.4496L116.408 23.3369V23.261L116.295 23.4844C114.764 25.4687 112.345 26.9692 109.659 27.6011C108.821 27.7985 107.963 27.8985 107.108 27.8985C107.108 27.8985 107.108 27.8985 107.107 27.8985C101.717 27.8983 97.1664 24.1136 96.2869 18.8993C95.7025 15.4302 96.4688 12.1058 98.4446 9.53845C100.271 7.16569 102.959 5.71017 106.014 5.44023C106.503 5.39703 106.99 5.37524 107.462 5.37524C114.396 5.37524 118.886 10.0382 118.9 17.2546C118.904 19.5841 118.903 22.1976 118.902 24.7253Z" fill="#C19676"/>
<path d="M107.509 8.05957H107.498C104.223 8.05957 101.43 9.69279 100.027 12.4283C99.4518 13.5512 99.1296 14.8065 99.0695 16.1624C99.066 16.2449 99.065 16.3284 99.0638 16.4119L99.0615 16.5324C99.0605 16.5633 99.0596 16.5943 99.0596 16.626C99.0603 18.4359 99.5388 20.1265 100.443 21.5157C101.957 23.8404 104.541 25.1739 107.536 25.1739C110.409 25.1731 112.83 23.9959 114.355 21.859C114.418 21.7708 114.479 21.6809 114.539 21.5893C115.452 20.1906 115.932 18.468 115.929 16.6075C115.924 14.775 115.453 13.076 114.566 11.6944C113.084 9.38841 110.512 8.06327 107.509 8.05957ZM114.458 21.5359C114.399 21.6262 114.339 21.7152 114.276 21.8024C112.77 23.9132 110.377 25.0758 107.532 25.0766C104.574 25.0766 102.02 23.7592 100.524 21.4626C99.6302 20.0894 99.1571 18.417 99.1563 16.6256C99.1563 16.5954 99.1573 16.5651 99.1581 16.5351L99.1606 16.4131C99.1617 16.3304 99.1629 16.2476 99.1666 16.1638C99.2259 14.8248 99.5445 13.583 100.114 12.4727C101.499 9.77005 104.26 8.15669 107.498 8.15669V8.10843V8.10803L107.498 8.10843L107.509 8.15669C110.478 8.16058 113.021 9.46917 114.485 11.7471C115.362 13.113 115.828 14.7937 115.832 16.6079C115.835 18.4493 115.36 20.1532 114.458 21.5359Z" fill="#C19676"/>
<path d="M33.518 8.35021L33.5182 8.30116C33.5247 7.33489 33.4759 6.59127 33.3601 5.89746H30.5694C30.5696 6.11777 30.5702 6.3266 30.5707 6.52763C30.5721 7.01067 30.5735 7.46685 30.568 7.91271C30.5548 9.00334 30.5547 10.1132 30.5545 11.1863C30.5541 13.6829 30.5537 16.2644 30.39 18.7937C30.1514 22.4917 27.2679 25.1759 23.5343 25.1761L23.4622 25.1757C19.8155 25.143 17.0959 22.5871 16.6947 18.816C16.4663 16.671 16.4909 14.4862 16.5148 12.3735C16.5206 11.864 16.5262 11.3545 16.5286 10.845L16.5483 5.89766H13.587C13.6232 7.46062 13.5928 9.05141 13.5633 10.5902C13.5077 13.4927 13.4503 16.4941 13.8394 19.4201C14.3398 23.1832 16.4085 25.8625 19.822 27.1684C21.0955 27.6555 22.3933 27.9023 23.6797 27.9023C26.2753 27.9023 28.6922 26.8936 30.4852 25.0624L30.5682 24.9774V27.8517H33.5191C33.5191 26.7943 33.5191 9.38439 33.5182 8.34962H33.518V8.35021Z" fill="#C19677"/>
<path d="M33.6031 8.30119L33.6145 8.3014C33.6213 7.31022 33.5699 6.55122 33.4482 5.84029L33.4412 5.7998H30.4719V5.84846C30.4719 6.08686 30.4727 6.31184 30.4732 6.52767C30.4746 7.03114 30.476 7.4661 30.4705 7.91119C30.4573 9.00221 30.4572 10.1125 30.457 11.186C30.4566 13.681 30.4562 16.2608 30.2927 18.7869C30.0574 22.4323 27.2148 25.0782 23.5338 25.0784L23.4626 25.0781C19.8674 25.0457 17.186 22.5251 16.7905 18.8056C16.5629 16.6662 16.5873 14.4843 16.6112 12.3745C16.6168 11.8648 16.6226 11.3549 16.6249 10.8452L16.6451 5.8002H13.5767L13.5624 5.80233C13.5564 5.80428 13.5505 5.80565 13.5447 5.80681C13.5375 5.80856 13.5304 5.81031 13.5232 5.81246L13.4875 5.82297L13.4883 5.86014C13.5259 7.4338 13.4953 9.03724 13.4656 10.5881C13.41 13.4943 13.3526 16.4994 13.7425 19.4328C14.2477 23.2333 16.338 25.9398 19.7868 27.2591C21.0713 27.7503 22.3808 27.9996 23.679 27.9996C26.2607 27.9996 28.6678 27.0116 30.4705 25.2143V27.949H33.6153L33.6145 9.14311C33.6147 8.59079 33.6145 8.38099 33.6031 8.30119ZM30.5679 27.8517V24.9774L30.4849 25.0625C28.6916 26.8936 26.2749 27.9023 23.6794 27.9023C22.393 27.9023 21.0949 27.6554 19.8217 27.1684C16.4082 25.8624 14.3393 23.1831 13.839 19.4202C13.4499 16.4941 13.5075 13.4928 13.5629 10.5903C13.5924 9.05144 13.6229 7.46065 13.5866 5.89769H16.548L16.5282 10.845C16.5259 11.3545 16.5201 11.864 16.5144 12.3735C16.4906 14.4861 16.466 16.6709 16.6944 18.8161C17.0955 22.5872 19.8151 25.1431 23.4618 25.1758L23.534 25.1761C27.2676 25.1759 30.1508 22.4918 30.3897 18.7937C30.5531 16.2645 30.5535 13.6829 30.5541 11.1864C30.5543 10.1131 30.5545 9.00318 30.5677 7.91275C30.5729 7.46688 30.5717 7.0107 30.5704 6.52767C30.5698 6.32663 30.5692 6.11781 30.569 5.8975H33.3598C33.4755 6.59112 33.5244 7.33493 33.5178 8.30119L33.5176 8.35024H33.518C33.519 9.38501 33.519 26.795 33.519 27.8523H30.5679V27.8517Z" fill="#C19676"/>
<path d="M48.4909 16.3573L48.4669 16.3271L48.4909 16.2969C49.9043 14.5076 52.3011 11.7336 54.619 9.05082C55.5803 7.9382 56.5735 6.78879 57.4782 5.73047L54.1291 5.74857C53.313 6.69324 52.345 7.79243 51.4089 8.85581C49.5612 10.9542 47.6506 13.1243 46.7282 14.3047L46.69 14.3535L46.6518 14.3047C46.0323 13.5128 45.0588 12.3383 43.9316 10.9783C42.5335 9.29175 40.9497 7.38101 39.7365 5.82622L36.3787 5.84432C37.2333 6.897 38.1436 8.01565 39.0539 9.13411C41.2281 11.8056 43.4763 14.5678 44.8925 16.3477L44.9167 16.3781L44.8925 16.4085C43.4069 18.2738 41.2779 21.0337 39.2191 23.7025C38.124 25.1222 36.9923 26.5892 35.9756 27.898H39.3334C41.3958 25.0798 45.1306 20.3428 46.6202 18.4856L46.658 18.4385L46.6958 18.4858C48.4653 20.7054 51.9744 25.1794 53.9243 27.898H57.3627C56.2887 26.5043 55.0967 24.9433 53.9433 23.4329C51.9663 20.8437 49.9218 18.1664 48.4909 16.3573Z" fill="#C19677"/>
<path d="M54.0196 23.3738C52.0532 20.7988 50.0203 18.1367 48.5903 16.3271C50.0052 14.5386 52.3875 11.7815 54.6918 9.11429C55.6777 7.97325 56.6971 6.79331 57.6204 5.7128L57.6894 5.63184L54.1058 5.65129L54.0839 5.65149L54.0696 5.66803C53.2508 6.61581 52.2771 7.72182 51.3357 8.79123C49.512 10.8623 47.6273 13.0029 46.6894 14.1959C46.0677 13.4038 45.1105 12.249 44.0055 10.916C42.6022 9.22308 41.0118 7.30417 39.7975 5.74725L39.7828 5.72837L36.1748 5.74802L36.2388 5.82684C37.1118 6.90248 38.045 8.04897 38.9781 9.19564C41.1397 11.8516 43.3746 14.5976 44.7919 16.3781C43.307 18.2435 41.1896 20.9882 39.1418 23.6431C38.0246 25.0911 36.8697 26.5886 35.8374 27.9169L35.7764 27.9953H39.3818L39.3963 27.9753C41.4375 25.1843 45.1399 20.4867 46.6571 18.5938C48.4423 20.8341 51.9272 25.2791 53.8594 27.9751L53.874 27.9953H57.5593L57.4988 27.9169C56.4098 26.504 55.1947 24.9126 54.0196 23.3738ZM53.9236 27.8982C51.9737 25.1794 48.4646 20.7056 46.6951 18.486L46.6573 18.4387L46.6195 18.4858C45.13 20.343 41.3953 25.08 39.3328 27.8982H35.9751C36.9918 26.5894 38.1233 25.1224 39.2186 23.7027C41.2774 21.0337 43.4064 18.2739 44.892 16.4087L44.9162 16.3783L44.892 16.348C43.4758 14.568 41.2276 11.8056 39.0534 9.13434C38.1431 8.01588 37.2326 6.89723 36.3782 5.84455L39.736 5.82645C40.9492 7.38104 42.533 9.29198 43.9311 10.9785C45.0583 12.3383 46.0318 13.5128 46.6512 14.3049L46.6894 14.3537L46.7276 14.3049C47.6501 13.1245 49.5607 10.9544 51.4084 8.85604C52.3446 7.79266 53.3125 6.69347 54.1285 5.7488L57.4777 5.7307C56.573 6.78902 55.5797 7.93843 54.6185 9.05105C52.3006 11.7338 49.9036 14.5079 48.4904 16.2972L48.4664 16.3273L48.4904 16.3575C49.9211 18.1668 51.9656 20.8442 53.9428 23.4331C55.0964 24.9437 56.2884 26.5046 57.3621 27.8982H53.9236Z" fill="#C19676"/>
<path d="M10.7722 24.8441C10.5363 24.8712 10.3026 24.9025 10.0704 24.9338C9.54397 25.0047 9.04685 25.0718 8.53558 25.0885C5.47067 25.1913 3.50411 23.5448 3.02309 20.4736C2.86934 19.4935 2.79547 18.4545 2.7978 17.2971C2.8042 14.2836 2.8199 6.58617 2.82552 0.100586H0.153803C0.136935 4.91384 0.114255 11.8062 0.101652 17.4084C0.0975806 19.1899 0.232137 20.6221 0.524707 21.9151C1.29229 25.305 4.47276 27.7653 8.08713 27.7653C9.31228 27.7653 10.4913 27.4866 11.5922 26.9372C11.5187 26.7344 11.4549 26.5244 11.393 26.3209C11.2412 25.8207 11.0842 25.304 10.7722 24.8441Z" fill="#C19677"/>
<path d="M11.4811 26.289C11.3242 25.7731 11.1621 25.2396 10.8306 24.7613L10.8141 24.7375L10.7854 24.7408C10.539 24.7687 10.2951 24.8015 10.0527 24.834C9.52886 24.9045 9.03407 24.9712 8.52765 24.9878C5.51024 25.0876 3.58672 23.4723 3.11423 20.455C2.96106 19.48 2.88777 18.4462 2.8901 17.2941C2.8965 14.2729 2.9122 6.54451 2.91783 0.0486537V0H0.0526307L0.0524295 0.0484637C0.0355617 4.86382 0.0128854 11.7839 8.91346e-05 17.4046C-0.00398241 19.1937 0.131338 20.6329 0.425652 21.9335C1.20312 25.3671 4.42353 27.8591 8.08269 27.8591C9.3375 27.8591 10.5444 27.5705 11.6699 27.0013L11.7087 26.9816L11.6936 26.9408C11.6146 26.728 11.5468 26.5048 11.4811 26.289ZM8.08249 27.7616C4.46812 27.7616 1.28766 25.3013 0.520073 21.9115C0.227504 20.6183 0.0929592 19.1863 0.0970307 17.4048C0.109633 11.8028 0.132314 4.91053 0.149182 0.0971174H2.82088C2.81526 6.58266 2.79956 14.2801 2.79316 17.2935C2.79083 18.4509 2.86471 19.4899 3.01846 20.47C3.49948 23.5412 5.46624 25.1877 8.53095 25.0849C9.04222 25.0682 9.53932 25.001 10.0657 24.9302C10.298 24.8988 10.5316 24.8675 10.7676 24.8405C11.0795 25.3001 11.2366 25.817 11.3886 26.317C11.4504 26.5206 11.5142 26.7306 11.5877 26.9334C10.4866 27.4831 9.30763 27.7616 8.08249 27.7616Z" fill="#C19676"/>
</svg>
