<svg width="28" height="28" viewBox="0 0 28 28" fill="none" xmlns="http://www.w3.org/2000/svg">
<path d="M2.33301 2.33301H4.36301C5.62301 2.33301 6.61468 3.41801 6.50968 4.66634L5.54134 16.2863C5.37801 18.188 6.883 19.8213 8.79633 19.8213H21.2213C22.9013 19.8213 24.3713 18.4447 24.4997 16.7763L25.1297 8.02635C25.2697 6.08968 23.7997 4.51467 21.8513 4.51467H6.78968" stroke="#292D32" stroke-width="1.5" stroke-miterlimit="10" stroke-linecap="round" stroke-linejoin="round"/>
<path d="M18.9583 25.6667C19.7637 25.6667 20.4167 25.0137 20.4167 24.2083C20.4167 23.4029 19.7637 22.75 18.9583 22.75C18.1529 22.75 17.5 23.4029 17.5 24.2083C17.5 25.0137 18.1529 25.6667 18.9583 25.6667Z" stroke="#292D32" stroke-width="1.5" stroke-miterlimit="10" stroke-linecap="round" stroke-linejoin="round"/>
<path d="M9.62533 25.6667C10.4307 25.6667 11.0837 25.0137 11.0837 24.2083C11.0837 23.4029 10.4307 22.75 9.62533 22.75C8.81991 22.75 8.16699 23.4029 8.16699 24.2083C8.16699 25.0137 8.81991 25.6667 9.62533 25.6667Z" stroke="#292D32" stroke-width="1.5" stroke-miterlimit="10" stroke-linecap="round" stroke-linejoin="round"/>
<path d="M10.5 9.33301H24.5" stroke="#292D32" stroke-width="1.5" stroke-miterlimit="10" stroke-linecap="round" stroke-linejoin="round"/>
</svg>
