<svg width="32" height="32" viewBox="0 0 32 32" fill="none" xmlns="http://www.w3.org/2000/svg">
<path d="M22.4903 3.17136L19.2502 3.16602C15.61 3.16602 13.2575 5.64529 13.2575 9.48262V12.395H9.99972C9.7182 12.395 9.49023 12.6294 9.49023 12.9186V17.1383C9.49023 17.4275 9.71846 17.6617 9.99972 17.6617H13.2575V28.3093C13.2575 28.5985 13.4855 28.8327 13.767 28.8327H18.0175C18.299 28.8327 18.527 28.5982 18.527 28.3093V17.6617H22.3362C22.6177 17.6617 22.8456 17.4275 22.8456 17.1383L22.8472 12.9186C22.8472 12.7798 22.7934 12.6468 22.698 12.5485C22.6026 12.4503 22.4726 12.395 22.3375 12.395H18.527V9.92614C18.527 8.7395 18.8023 8.13711 20.3071 8.13711L22.4898 8.13631C22.771 8.13631 22.999 7.90186 22.999 7.61295V3.69471C22.999 3.40607 22.7713 3.17189 22.4903 3.17136Z" fill="#141414"/>
</svg>
