<svg width="32" height="32" viewBox="0 0 32 32" fill="none" xmlns="http://www.w3.org/2000/svg">
<path d="M10.9296 4H21.0704C22.3099 4 23.4554 4.31925 24.507 4.95775C25.5962 5.55869 26.4413 6.40376 27.0423 7.49296C27.6808 8.5446 28 9.69014 28 10.9296V21.0704C28 22.3099 27.6808 23.4742 27.0423 24.5634C26.4413 25.615 25.5962 26.4413 24.507 27.0423C23.4554 27.6808 22.3099 28 21.0704 28H10.9296C9.69014 28 8.52582 27.6808 7.43662 27.0423C6.38498 26.4413 5.53991 25.615 4.90141 24.5634C4.30047 23.4742 4 22.3099 4 21.0704V10.9296C4 9.69014 4.30047 8.5446 4.90141 7.49296C5.53991 6.40376 6.38498 5.55869 7.43662 4.95775C8.52582 4.31925 9.69014 4 10.9296 4ZM10.7042 6.3662C9.50235 6.3662 8.46948 6.79812 7.60563 7.66197C6.77934 8.48826 6.3662 9.50235 6.3662 10.7042V21.2958C6.3662 22.4977 6.77934 23.5305 7.60563 24.3944C8.46948 25.2207 9.50235 25.6338 10.7042 25.6338H21.2958C22.4977 25.6338 23.5117 25.2207 24.338 24.3944C25.2019 23.5305 25.6338 22.4977 25.6338 21.2958V10.7042C25.6338 9.50235 25.2019 8.48826 24.338 7.66197C23.5117 6.79812 22.4977 6.3662 21.2958 6.3662H10.7042ZM22.3099 8.16901C22.723 8.16901 23.0798 8.31925 23.3803 8.61972C23.6808 8.92019 23.831 9.277 23.831 9.69014C23.831 10.1033 23.6808 10.4601 23.3803 10.7606C23.0798 11.061 22.723 11.2113 22.3099 11.2113C21.8967 11.2113 21.5399 11.061 21.2394 10.7606C20.939 10.4601 20.7887 10.1033 20.7887 9.69014C20.7887 9.277 20.939 8.92019 21.2394 8.61972C21.5399 8.31925 21.8967 8.16901 22.3099 8.16901ZM16 9.97183C17.0892 9.97183 18.0845 10.2535 18.9859 10.8169C19.9249 11.3427 20.6573 12.0751 21.1831 13.0141C21.7465 13.9155 22.0282 14.9108 22.0282 16C22.0282 17.0892 21.7465 18.1033 21.1831 19.0423C20.6573 19.9437 19.9249 20.6761 18.9859 21.2394C18.0845 21.7653 17.0892 22.0282 16 22.0282C14.9108 22.0282 13.8967 21.7653 12.9577 21.2394C12.0563 20.6761 11.3239 19.9437 10.7606 19.0423C10.2347 18.1033 9.97183 17.0892 9.97183 16C9.97183 14.9108 10.2347 13.9155 10.7606 13.0141C11.3239 12.0751 12.0563 11.3427 12.9577 10.8169C13.8967 10.2535 14.9108 9.97183 16 9.97183ZM16 12.3944C14.9859 12.3944 14.1221 12.7512 13.4085 13.4648C12.7324 14.1408 12.3944 14.9859 12.3944 16C12.3944 17.0141 12.7324 17.8779 13.4085 18.5915C14.1221 19.2676 14.9859 19.6056 16 19.6056C17.0141 19.6056 17.8592 19.2676 18.5352 18.5915C19.2488 17.8779 19.6056 17.0141 19.6056 16C19.6056 14.9859 19.2488 14.1408 18.5352 13.4648C17.8592 12.7512 17.0141 12.3944 16 12.3944Z" fill="black"/>
</svg>
