<svg width="85" height="50" viewBox="0 0 85 50" fill="none" xmlns="http://www.w3.org/2000/svg">
<rect width="85" height="50" fill="#FAFAFB"/>
<g clip-path="url(#clip0_603_101)">
<path d="M23.8 31.728H26.938V17H23.8V31.728ZM43.671 23.211V21.894H40.739V31.727H43.707V26.574C43.707 25.079 45.393 24.423 46.551 24.754C46.5626 24.7561 46.5744 24.7561 46.586 24.754V21.894C46.0321 21.8783 45.4818 21.9886 44.9768 22.2168C44.4718 22.4449 44.0253 22.7849 43.671 23.211ZM33.576 29.45C32.8574 29.468 32.161 29.2003 31.6395 28.7056C31.1179 28.2109 30.8139 27.5296 30.794 26.811C30.8322 26.0987 31.1421 25.4282 31.6598 24.9375C32.1775 24.4468 32.8637 24.1733 33.577 24.1733C34.2903 24.1733 34.9765 24.4468 35.4942 24.9375C36.0119 25.4282 36.3218 26.0987 36.36 26.811C36.3406 27.5299 36.0366 28.2117 35.5148 28.7066C34.9929 29.2014 34.2949 29.4688 33.576 29.45ZM36.331 22.575C35.5543 22.0253 34.6415 21.6998 33.6923 21.6339C32.743 21.5681 31.794 21.7645 30.9489 22.2018C30.1038 22.639 29.3952 23.3002 28.9006 24.113C28.4059 24.9258 28.1443 25.859 28.1443 26.8105C28.1443 27.762 28.4059 28.6952 28.9006 29.508C29.3952 30.3208 30.1038 30.982 30.9489 31.4192C31.794 31.8565 32.743 32.0529 33.6923 31.9871C34.6415 31.9212 35.5543 31.5957 36.331 31.046V31.726H38.894V21.893H36.331V22.575ZM53.923 21.629C53.3442 21.5948 52.7658 21.7018 52.2375 21.9406C51.7092 22.1794 51.2467 22.543 50.89 23V21.894H47.958V31.727H50.926V26.349C50.9032 26.0521 50.9446 25.7539 51.0473 25.4744C51.1501 25.195 51.3118 24.9409 51.5214 24.7295C51.7311 24.5182 51.9838 24.3544 52.2624 24.2494C52.541 24.1444 52.839 24.1006 53.136 24.121C54.43 24.121 55.174 24.894 55.174 26.328V31.728H58.115V25.473C58.1099 24.9397 57.9952 24.4132 57.7782 23.9261C57.5611 23.439 57.2463 23.0016 56.8533 22.6412C56.4602 22.2808 55.9973 22.005 55.4932 21.8308C54.9892 21.6567 54.4547 21.588 53.923 21.629ZM73.029 28.239C72.6633 28.2388 72.3057 28.3471 72.0015 28.5501C71.6973 28.7532 71.4601 29.0419 71.32 29.3797C71.1799 29.7176 71.1432 30.0894 71.2144 30.4481C71.2856 30.8068 71.4617 31.1364 71.7202 31.3951C71.9788 31.6538 72.3082 31.83 72.6669 31.9014C73.0256 31.9728 73.3974 31.9363 73.7354 31.7963C74.0733 31.6564 74.3621 31.4194 74.5653 31.1154C74.7685 30.8113 74.877 30.4537 74.877 30.088C74.877 29.5978 74.6823 29.1276 74.3358 28.7809C73.9893 28.4342 73.5192 28.2393 73.029 28.239ZM64.585 29.45C63.8658 29.4691 63.1685 29.2018 62.6462 28.707C62.124 28.2121 61.8196 27.5302 61.8 26.811C61.8382 26.0987 62.1481 25.4282 62.6658 24.9375C63.1835 24.4468 63.8697 24.1733 64.583 24.1733C65.2963 24.1733 65.9825 24.4468 66.5002 24.9375C67.0179 25.4282 67.3278 26.0987 67.366 26.811C67.3464 27.5295 67.0425 28.2108 66.5212 28.7055C65.9998 29.2003 65.3035 29.468 64.585 29.45ZM67.34 22.575C66.5633 22.0253 65.6505 21.6998 64.7013 21.6339C63.752 21.5681 62.803 21.7645 61.9579 22.2018C61.1128 22.639 60.4042 23.3002 59.9096 24.113C59.4149 24.9258 59.1533 25.859 59.1533 26.8105C59.1533 27.762 59.4149 28.6952 59.9096 29.508C60.4042 30.3208 61.1128 30.982 61.9579 31.4192C62.803 31.8565 63.752 32.0529 64.7013 31.9871C65.6505 31.9212 66.5633 31.5957 67.34 31.046V31.726H69.9V21.893H67.34V22.575ZM71.767 22.075H71.91C72 22.075 72.038 22.118 72.038 22.185C72.038 22.252 72.013 22.302 71.91 22.302H71.767V22.075ZM71.767 22.422H71.91L72.03 22.696H72.173L72.039 22.396C72.0805 22.3785 72.1155 22.3485 72.139 22.3101C72.1625 22.2717 72.1733 22.2269 72.17 22.182C72.17 22.1511 72.1639 22.1205 72.152 22.092C72.1401 22.0635 72.1227 22.0376 72.1008 22.0158C72.0788 21.9941 72.0528 21.9769 72.0242 21.9652C71.9955 21.9536 71.9649 21.9477 71.934 21.948H71.634V22.69H71.765L71.767 22.422ZM10 31.728H13.271V17H10V31.728ZM21.664 17H18.49C18.4592 18.5824 17.9992 20.1268 17.1591 21.4682C16.319 22.8096 15.1303 23.8976 13.72 24.616L18.6 31.728H22.584L18.148 25.259C19.2479 24.1809 20.1246 22.8965 20.7279 21.4794C21.3312 20.0623 21.6493 18.5401 21.664 17ZM71.876 21.764C71.989 21.7622 72.0999 21.794 72.1948 21.8553C72.2897 21.9166 72.3643 22.0047 72.4091 22.1084C72.4539 22.2121 72.467 22.3267 72.4466 22.4379C72.4262 22.549 72.3734 22.6516 72.2947 22.7326C72.216 22.8137 72.115 22.8696 72.0046 22.8933C71.8941 22.9169 71.7791 22.9073 71.6741 22.8656C71.5691 22.8239 71.4789 22.752 71.4148 22.6589C71.3507 22.5659 71.3156 22.456 71.314 22.343V22.335C71.3129 22.1848 71.3715 22.0403 71.4769 21.9332C71.5823 21.8262 71.7258 21.7653 71.876 21.764ZM71.876 23.04C72.0155 23.0412 72.1521 23.001 72.2688 22.9246C72.3854 22.8482 72.4769 22.7389 72.5315 22.6106C72.5861 22.4823 72.6015 22.3407 72.5758 22.2036C72.55 22.0666 72.4842 21.9402 72.3868 21.8405C72.2893 21.7408 72.1644 21.6721 72.028 21.6433C71.8915 21.6144 71.7496 21.6267 71.6201 21.6784C71.4906 21.7301 71.3793 21.819 71.3003 21.9339C71.2212 22.0488 71.178 22.1846 71.176 22.324V22.334C71.1752 22.4264 71.1927 22.5181 71.2276 22.6037C71.2624 22.6893 71.3138 22.7672 71.3789 22.8329C71.444 22.8985 71.5214 22.9506 71.6067 22.9861C71.692 23.0217 71.7836 23.04 71.876 23.04Z" fill="black"/>
</g>
<defs>
<clipPath id="clip0_603_101">
<rect width="64.877" height="15" fill="white" transform="translate(10 17)"/>
</clipPath>
</defs>
</svg>
