<svg width="559" height="9" viewBox="0 0 559 9" fill="none" xmlns="http://www.w3.org/2000/svg">
<path d="M7.5 4.11011C7.5 6.03182 5.93499 7.59327 4 7.59327C2.06501 7.59327 0.5 6.03182 0.5 4.11011C0.5 2.1884 2.06501 0.626953 4 0.626953C5.93499 0.626953 7.5 2.1884 7.5 4.11011Z" stroke="#4F4F4F"/>
<path d="M558.354 4.46293C558.549 4.26767 558.549 3.95108 558.354 3.75582L555.172 0.573841C554.976 0.378579 554.66 0.378579 554.464 0.573841C554.269 0.769103 554.269 1.08569 554.464 1.28095L557.293 4.10938L554.464 6.9378C554.269 7.13306 554.269 7.44965 554.464 7.64491C554.66 7.84017 554.976 7.84017 555.172 7.64491L558.354 4.46293ZM8 4.60938H558V3.60938H8V4.60938Z" fill="#4F4F4F"/>
</svg>
