<svg width="85" height="50" viewBox="0 0 85 50" fill="none" xmlns="http://www.w3.org/2000/svg">
<rect width="85" height="50" fill="#FAFAFB"/>
<path d="M50.3924 12.9531H38.3066V34.6691H50.3924V12.9531Z" fill="#FF5F00"/>
<path d="M39.0735 23.8123C39.0735 19.4 41.1454 15.4866 44.3299 12.9543C41.9895 11.1127 39.0352 10 35.8123 10C28.1772 10 22 16.1772 22 23.8123C22 31.4474 28.1772 37.6246 35.8123 37.6246C39.0352 37.6246 41.9895 36.512 44.3299 34.6703C41.1454 32.1764 39.0735 28.2246 39.0735 23.8123Z" fill="#EB001B"/>
<path d="M66.6981 23.8123C66.6981 31.4474 60.5209 37.6246 52.8858 37.6246C49.6629 37.6246 46.7086 36.512 44.3682 34.6703C47.591 32.1381 49.6245 28.2246 49.6245 23.8123C49.6245 19.4 47.5527 15.4866 44.3682 12.9543C46.7086 11.1127 49.6629 10 52.8858 10C60.5209 10 66.6981 16.2155 66.6981 23.8123Z" fill="#F79E1B"/>
</svg>
