<svg width="85" height="50" viewBox="0 0 85 50" fill="none" xmlns="http://www.w3.org/2000/svg">
<rect width="85" height="50" fill="#FAFAFB"/>
<g clip-path="url(#clip0_603_92)">
<path d="M53.7723 9.81108C52.1186 7.91188 49.1294 7.09766 45.3054 7.09766H34.2068C33.4244 7.09766 32.7596 7.671 32.6371 8.4484L28.0159 37.9805C27.924 38.5628 28.3715 39.0904 28.9573 39.0904H35.8091L37.53 28.0924L37.4766 28.4368C37.5991 27.6594 38.259 27.086 39.0404 27.086H42.2964C48.6927 27.086 53.7012 24.4682 55.1642 16.8953C55.2077 16.6713 55.2452 16.4533 55.2778 16.2403C55.0931 16.1417 55.0931 16.1417 55.2778 16.2403C55.7135 13.4413 55.2748 11.5361 53.7723 9.81108Z" fill="#27346A"/>
<path d="M40.1517 15.232C40.3345 15.1444 40.538 15.0956 40.7514 15.0956H49.4524C50.4827 15.0956 51.4439 15.1633 52.3221 15.3056C52.574 15.3464 52.818 15.3932 53.0551 15.447C53.2922 15.4997 53.5224 15.5594 53.7456 15.6251C53.8573 15.658 53.9669 15.6918 54.0746 15.7277C54.5063 15.873 54.9083 16.0422 55.2778 16.2403C55.7134 13.4403 55.2748 11.5361 53.7723 9.81108C52.1176 7.91188 49.1294 7.09766 45.3054 7.09766H34.2058C33.4244 7.09766 32.7596 7.671 32.6371 8.4484L28.0159 37.9795C27.924 38.5628 28.3715 39.0894 28.9563 39.0894H35.8091L39.3792 16.2771C39.4523 15.8093 39.7507 15.4261 40.1517 15.232Z" fill="#27346A"/>
<path d="M55.1639 16.8952C53.7009 24.4671 48.6924 27.086 42.2961 27.086H39.0391C38.2577 27.086 37.5978 27.6593 37.4763 28.4367L35.3356 42.1113C35.2556 42.621 35.6468 43.0828 36.1585 43.0828H41.9345C42.6181 43.0828 43.1999 42.5812 43.3066 41.9013L43.3629 41.6047L44.4516 34.6529L44.5217 34.2687C44.6284 33.5888 45.2102 33.0872 45.8938 33.0872H46.7582C52.3534 33.0872 56.7346 30.7968 58.0148 24.1725C58.5493 21.4043 58.2727 19.093 56.859 17.4695C56.4303 16.9778 55.8979 16.5717 55.2775 16.2402C55.2439 16.4542 55.2073 16.6712 55.1639 16.8952Z" fill="#2790C3"/>
<path d="M53.7466 15.6252C53.5233 15.5596 53.2931 15.4998 53.056 15.4471C52.819 15.3943 52.574 15.3475 52.3231 15.3067C51.4439 15.1634 50.4837 15.0957 49.4523 15.0957H40.7523C40.5379 15.0957 40.3344 15.1445 40.1527 15.2331C39.7506 15.4272 39.4533 15.8094 39.3802 16.2782L37.5309 28.0925L37.4775 28.4369C37.599 27.6595 38.2589 27.0861 39.0403 27.0861H42.2973C48.6937 27.0861 53.7021 24.4683 55.1651 16.8954C55.2086 16.6714 55.2451 16.4544 55.2787 16.2404C54.9083 16.0433 54.5072 15.8731 54.0755 15.7288C53.9678 15.6929 53.8582 15.6581 53.7466 15.6252Z" fill="#1F264F"/>
</g>
<defs>
<clipPath id="clip0_603_92">
<rect width="30.381" height="36.1132" fill="white" transform="translate(28 7)"/>
</clipPath>
</defs>
</svg>
