<svg width="32" height="32" viewBox="0 0 32 32" fill="none" xmlns="http://www.w3.org/2000/svg">
<path d="M28.25 8.73504C27.3483 9.11763 26.3807 9.3771 25.3641 9.49294C26.4021 8.89776 27.1967 7.95372 27.5733 6.83228C26.5996 7.38346 25.5249 7.78368 24.3797 8.00064C23.4626 7.06392 22.1583 6.48047 20.7115 6.48047C17.9358 6.48047 15.6853 8.63538 15.6853 11.2916C15.6853 11.6684 15.7297 12.0363 15.8155 12.3882C11.639 12.1873 7.93562 10.2713 5.457 7.36C5.02372 8.06952 4.77724 8.89626 4.77724 9.77878C4.77724 11.4485 5.66521 12.9217 7.01247 13.7837C6.18879 13.7573 5.41412 13.5403 4.73593 13.1797V13.2398C4.73593 15.5706 6.46898 17.5159 8.76694 17.9586C8.34592 18.0671 7.90196 18.1272 7.44266 18.1272C7.11811 18.1272 6.80426 18.0964 6.49653 18.0378C7.13645 19.9508 8.99201 21.342 11.1905 21.3801C9.4712 22.6701 7.30335 23.4368 4.94874 23.4368C4.54305 23.4368 4.14344 23.4134 3.75 23.3708C5.9745 24.7386 8.61542 25.536 11.4538 25.536C20.6993 25.536 25.753 18.2035 25.753 11.8443L25.7362 11.2213C26.7236 10.5469 27.5779 9.69963 28.25 8.73504Z" fill="#141414"/>
</svg>
