<svg width="85" height="50" viewBox="0 0 85 50" fill="none" xmlns="http://www.w3.org/2000/svg">
<rect width="85" height="50" fill="#FAFAFB"/>
<path d="M42.8245 22.7954C42.7971 24.8849 44.7487 26.051 46.2188 26.7442C47.7294 27.4556 48.2367 27.9117 48.231 28.5477C48.2194 29.5213 47.026 29.9509 45.909 29.9676C43.9602 29.9969 42.8273 29.4585 41.9265 29.0512L41.2246 32.2301C42.1283 32.6332 43.8017 32.9847 45.5371 33C49.6104 33 52.2754 31.0542 52.2898 28.0372C52.3057 24.2084 46.817 23.9964 46.8545 22.2849C46.8675 21.766 47.3791 21.2123 48.5005 21.0714C49.0554 21.0003 50.5876 20.9459 52.3244 21.72L53.0062 18.6444C52.0722 18.3152 50.8715 18 49.3769 18C45.5429 18 42.8461 19.9723 42.8245 22.7954ZM59.5571 18.265C58.8134 18.265 58.1864 18.6849 57.9068 19.3293L52.088 32.774H56.1584L56.9685 30.6079H61.9426L62.4125 32.774H66L62.8694 18.265H59.5571ZM60.1265 22.1845L61.3012 27.6327H58.0841L60.1265 22.1845ZM37.8893 18.265L34.6808 32.774H38.5595L41.7665 18.265H37.8893ZM32.1512 18.265L28.114 28.1404L26.4809 19.7435C26.2892 18.8062 25.5325 18.265 24.6922 18.265H18.0922L18 18.6863C19.3549 18.9708 20.8942 19.4297 21.8268 19.9207C22.3976 20.2206 22.5604 20.4828 22.7478 21.1956L25.841 32.774H29.9402L36.2245 18.265H32.1512Z" fill="url(#paint0_linear_603_89)"/>
<defs>
<linearGradient id="paint0_linear_603_89" x1="40.0676" y1="33.3009" x2="40.4878" y2="17.8949" gradientUnits="userSpaceOnUse">
<stop stop-color="#222357"/>
<stop offset="1" stop-color="#254AA5"/>
</linearGradient>
</defs>
</svg>
